<svg width="70" height="40" viewBox="0 0 70 40" fill="none" xmlns="http://www.w3.org/2000/svg">
<g id="Group 1">
<path id="Vector 1" d="M47.3042 1.23978e-05H56.7394L58.7 5.0101L41.6676 12.7L41.3 12.1174L42.5253 11.4184L47.3042 1.23978e-05Z" fill="#D9D9D9"/>
<path id="Vector 3" d="M61.3321 15.4L53.924 19.0052L54.7282 21.3051L53.2 22.0272L53.5511 22.8754L55.0355 22.1839L61.0801 39.4698L61.3321 39.7879L61.7352 40H69.4457L70 38.9927L62.8439 19.4823L69.5465 16.3013L69.1433 15.6121L55.0355 22.1839L54.7282 21.3051L62.1767 17.7858L61.3321 15.4Z" fill="#D9D9D9"/>
<path id="Vector 4" d="M32.3 38.5666V40H41.0568L47.7 21.1L35.0284 31.1871L37.7829 32.5674L34.8683 31.7711L32.3 38.5666Z" fill="#D9D9D9"/>
<path id="Vector 1_2" d="M20.2 40H27.9L29.5 35.4238L15.6 28.4L15.3 28.9321L16.3 29.5706L20.2 40Z" fill="#D9D9D9"/>
<path id="Vector 3_2" d="M25.7 21.5069L33.0731 25.2L34.0762 22.4302L28.1577 19.606L28.4586 18.9L40.8473 24.9828L41.2486 24.2767L34.5778 21.0181L36.1 16.9L31.9696 18.4112L36.3583 16.0216L41.7 1.0319L41.1483 0H33.4743L33.0731 0.217241L32.8223 0.543103L25.7 21.5069Z" fill="white"/>
<path id="Vector 4_2" d="M5.45437 4.37134V2.89999H14.4078L21.2 22.3L0 11.7826L8.5932 12.709L5.45437 4.37134Z" fill="#D9D9D9"/>
<path id="Vector 2" d="M10.0915 24.6372L29.4566 34.7L31.1047 30.7391L37.8 32.559L24.1518 25.8683L23.5338 27.367L22.9672 25.4401L12.1001 20.0875L13.3362 23.3526L26.1604 29.8827L25.7484 30.6321L0.409023 18L0.100006 18.5353L10.5036 23.7808L10.0915 24.6372Z" fill="#C778DD"/>
<path id="Vector 2_2" d="M37.049 16.4L55.9412 6.99999L57.549 10.7L64.0809 8.99999L50.7659 15.25L50.163 13.85L49.6103 15.65L39.0086 20.65L40.2145 17.6L40.7 16.4L32 18.95L37.049 16.4Z" fill="#C778DD"/>
</g>
</svg>
