<svg width="72" height="42" viewBox="0 0 72 42" fill="none" xmlns="http://www.w3.org/2000/svg">
<g id="Group 1">
<path id="Vector 1" d="M48.3042 1.00001H57.7394L59.7 6.0101L42.6676 13.7L42.3 13.1174L43.5253 12.4184L48.3042 1.00001Z" stroke="#C778DD"/>
<path id="Vector 3" d="M62.3321 16.4L54.924 20.0052L62.0801 40.4698L62.3321 40.7879L62.7352 41H70.4457L71 39.9927L63.8439 20.4823L70.5465 17.3013L70.1433 16.6121L54.5511 23.8754L54.2 23.0272L63.1767 18.7858L62.3321 16.4Z" stroke="#C778DD"/>
<path id="Vector 4" d="M33.3 39.5666V41H42.0568L48.7 22.1L36.0284 32.1871L38.7829 33.5674L35.8683 32.7711L33.3 39.5666Z" stroke="#C778DD"/>
<path id="Vector 1_2" d="M21.2 41H28.9L30.5 36.4238L16.6 29.4L16.3 29.9321L17.3 30.5706L21.2 41Z" stroke="#C778DD"/>
<path id="Vector 3_2" d="M26.7 22.5069L34.0731 26.2L35.0762 23.4302L29.1577 20.606L29.4586 19.9L41.8473 25.9828L42.2486 25.2767L35.5778 22.0181L37.1 17.9L32.9696 19.4112L37.3583 17.0216L42.7 2.0319L42.1483 1H34.4743L34.0731 1.21724L33.8223 1.5431L26.7 22.5069Z" stroke="#C778DD"/>
<path id="Vector 4_2" d="M6.45437 5.37134V3.89999H15.4078L22.2 23.3L1 12.7826L9.5932 13.709L6.45437 5.37134Z" stroke="#C778DD"/>
<path id="Vector 2" d="M11.0915 25.6372L30.4566 35.7L32.1047 31.7391L38.8 33.559L25.1518 26.8683L24.5338 28.367L23.9672 26.4401L13.1001 21.0875L14.3362 24.3526L27.1604 30.8827L26.7484 31.6321L1.40902 19L1.10001 19.5353L11.5036 24.7808L11.0915 25.6372Z" stroke="#C778DD"/>
<path id="Vector 2_2" d="M39.049 18.4L57.9412 8.99999L59.549 12.7L66.0809 11L52.7659 17.25L52.163 15.85L51.6103 17.65L41.0086 22.65L42.2145 19.6L42.7 18.4L34 20.95L39.049 18.4Z" stroke="#C778DD"/>
</g>
</svg>
